<?xml version="1.0" standalone="no"?><!DOCTYPE svg PUBLIC "-//W3C//DTD SVG 1.1//EN" "http://www.w3.org/Graphics/SVG/1.1/DTD/svg11.dtd"><svg class="icon" width="200px" height="200.00px" viewBox="0 0 1024 1024" version="1.1" xmlns="http://www.w3.org/2000/svg"><path d="M903 929.5H132.5c-20.1 0-36.5-16.4-36.5-36.6V119.5c0-13.8 11.2-25 25-25s25 11.2 25 25v760h757c13.8 0 25 11.2 25 25s-11.2 25-25 25z" fill="#f4ea2a" /><path d="M241 536.7h50V796h-50zM417.7 458.5h50V796h-50zM594.3 536.7h50V796h-50zM771 411h50v385h-50zM246.9 467.2L217 426.8l218.9-156.9 185.8 114.3 182.8-150.4 32.5 38.4-211 173.6-187.9-115.7z" fill="#f4ea2a" /><path d="M715.2 184.2l194.6-3.9-43.9 187" fill="#f4ea2a" /></svg>